# Blender v2.82 (sub 7) OBJ File: ''
# www.blender.org
mtllib gripper_b.mtl
o gripper_b
v 10.637962 -21.517151 -12.799952
v -9.708439 -21.517151 -16.875721
v -9.708439 21.516861 -16.875725
v 10.637962 21.516861 -12.799953
v 9.449661 21.516861 -6.867807
v 9.449661 14.016861 -6.867807
v 8.958561 12.016861 -4.416504
v 8.958561 -12.017151 -4.416502
v 9.449661 -14.017151 -6.867805
v 9.449661 -21.517151 -6.867804
v 2.967861 12.016861 25.489376
v 2.575062 14.016861 27.450375
v 2.967861 -12.017151 25.489378
v 2.575062 -14.017151 27.450378
v -0.366539 14.016861 26.861176
v -10.896839 14.016861 -10.943584
v -10.896839 -14.017151 -10.943581
v -0.366539 -14.017151 26.861179
v 4.936760 3.999863 0.387107
v 5.525963 -4.000137 -2.554452
v 5.525963 3.999863 -2.554453
v 4.936760 -4.000137 0.387107
v 8.468361 12.016861 -4.514714
v 8.468361 -12.017151 -4.514712
v 2.477562 12.016861 25.391176
v 7.977261 -4.000137 -2.063413
v 7.977261 3.999863 -2.063413
v 7.388062 3.999863 0.878147
v 7.388062 -4.000137 0.878148
v 2.477562 -12.017151 25.391178
v 5.472961 -0.000137 10.438177
v -10.896839 21.516861 -10.943584
v -10.896839 -21.517151 -10.943581
v -10.302639 -0.000137 -13.909653
v -3.289738 -0.775146 -11.459463
v -3.484737 -0.800140 -11.498543
v -4.173538 -0.775146 -7.047125
v -4.368637 -0.800140 -7.086202
v -3.106838 -0.701141 -11.422842
v -3.990738 -0.701141 -7.010503
v -2.947838 -0.583145 -11.390984
v -3.831638 -0.583145 -6.978637
v -2.822437 -0.429138 -11.365871
v -3.706337 -0.429138 -6.953530
v -2.738739 -0.247147 -11.349103
v -3.622639 -0.247147 -6.936759
v -2.701939 -0.050140 -11.341722
v -3.585739 -0.050140 -6.929379
v -2.714237 0.149857 -11.344193
v -3.598137 0.149857 -6.931852
v -2.775040 0.340851 -11.356363
v -3.658939 0.340851 -6.944024
v -2.880337 0.509857 -11.377473
v -3.764240 0.509857 -6.965129
v -3.023739 0.646851 -11.406183
v -3.907539 0.646851 -6.993841
v -3.196037 0.743851 -11.440702
v -4.079937 0.743851 -7.028357
v -3.386440 0.793854 -11.478853
v -4.270340 0.793854 -7.066508
v -3.583138 0.793854 -11.518244
v -4.466938 0.793854 -7.105896
v -3.773540 0.743851 -11.556393
v -4.657440 0.743851 -7.144047
v -3.945839 0.646851 -11.590903
v -4.829739 0.646851 -7.178563
v -4.089138 0.509857 -11.619614
v -4.973038 0.509857 -7.207273
v -4.194538 0.340851 -11.640723
v -5.078438 0.340851 -7.228383
v -4.255337 0.149857 -11.652893
v -5.139137 0.149857 -7.240553
v -4.267639 -0.050140 -11.655363
v -5.151539 -0.050140 -7.243023
v -4.230839 -0.247147 -11.647984
v -5.114639 -0.247147 -7.235643
v -4.147038 -0.429138 -11.631212
v -5.030937 -0.429138 -7.218873
v -4.021740 -0.583145 -11.606112
v -4.905640 -0.583145 -7.193763
v -3.862640 -0.701141 -11.574244
v -4.746540 -0.701141 -7.161903
v -3.679840 -0.775146 -11.537622
v -4.563740 -0.775146 -7.125280
v -4.368637 -0.003143 -7.086202
v -3.484737 -0.003143 -11.498543
vn 0.1964 -0.0000 -0.9805
vn 0.9805 0.0000 0.1964
vn -0.9633 0.0000 0.2683
vn 0.0000 -1.0000 0.0000
vn -0.1964 0.0000 0.9805
vn 0.0000 1.0000 0.0000
vn -0.9805 -0.0000 -0.1964
vn -0.1223 0.9922 -0.0245
vn -0.1222 0.9922 -0.0245
vn -0.3616 0.9295 -0.0724
vn -0.3618 0.9295 -0.0725
vn -0.3618 0.9294 -0.0725
vn -0.5769 0.8086 -0.1156
vn -0.5767 0.8088 -0.1155
vn -0.7543 0.6389 -0.1511
vn -0.7546 0.6386 -0.1512
vn -0.8877 0.4246 -0.1778
vn -0.8877 0.4247 -0.1778
vn -0.9632 0.1872 -0.1930
vn -0.9631 0.1876 -0.1929
vn -0.9786 -0.0626 -0.1960
vn -0.9786 -0.0625 -0.1962
vn -0.9786 -0.0631 -0.1960
vn -0.9326 -0.3088 -0.1868
vn -0.8276 -0.5363 -0.1658
vn -0.6703 -0.7298 -0.1343
vn -0.6706 -0.7296 -0.1343
vn -0.4739 -0.8755 -0.0949
vn -0.4737 -0.8756 -0.0949
vn -0.4732 -0.8758 -0.0949
vn -0.2445 -0.9684 -0.0490
vn -0.2450 -0.9683 -0.0490
vn 0.2445 -0.9684 0.0490
vn 0.2444 -0.9684 0.0490
vn 0.2441 -0.9685 0.0490
vn 0.4739 -0.8755 0.0949
vn 0.6706 -0.7296 0.1343
vn 0.8274 -0.5367 0.1657
vn 0.9326 -0.3088 0.1868
vn 0.9327 -0.3084 0.1868
vn 0.9327 -0.3083 0.1868
vn 0.9786 -0.0626 0.1960
vn 0.9786 -0.0631 0.1960
vn 0.9786 -0.0630 0.1960
vn 0.9632 0.1872 0.1930
vn 0.9632 0.1873 0.1929
vn 0.9631 0.1875 0.1930
vn 0.9631 0.1876 0.1929
vn 0.8875 0.4251 0.1778
vn 0.8877 0.4248 0.1778
vn 0.8877 0.4247 0.1778
vn 0.7546 0.6386 0.1512
vn 0.5767 0.8088 0.1155
vn 0.3618 0.9294 0.0725
vn 0.3618 0.9295 0.0725
vn 0.1222 0.9922 0.0245
vn 0.1965 -0.0000 -0.9805
vn -0.1965 0.0000 0.9805
usemtl flat_black.005
s 1
f 1//1 2//1 3//1
f 1//1 3//1 4//1
f 4//2 5//2 6//2
f 6//2 7//2 8//2
f 9//2 6//2 8//2
f 6//2 1//2 4//2
f 9//2 1//2 6//2
f 1//2 9//2 10//2
f 11//2 12//2 13//2
f 13//2 12//2 14//2
f 11//2 6//2 12//2
f 7//2 6//2 11//2
f 13//2 14//2 9//2
f 8//2 13//2 9//2
f 15//3 16//3 17//3
f 18//3 15//3 17//3
f 19//2 20//2 21//2
f 19//2 22//2 20//2
f 18//4 17//4 9//4
f 14//4 18//4 9//4
f 8//5 7//5 23//5
f 24//5 8//5 23//5
f 23//4 7//4 11//4
f 23//4 11//4 25//4
f 21//5 20//5 26//5
f 27//5 21//5 26//5
f 21//4 27//4 19//4
f 27//4 28//4 19//4
f 19//1 28//1 29//1
f 19//1 29//1 22//1
f 20//6 22//6 29//6
f 26//6 20//6 29//6
f 25//1 11//1 13//1
f 25//1 13//1 30//1
f 8//6 24//6 30//6
f 8//6 30//6 13//6
f 27//2 23//2 28//2
f 27//2 26//2 24//2
f 26//2 29//2 24//2
f 23//2 27//2 24//2
f 28//2 23//2 25//2
f 24//2 29//2 30//2
f 25//2 30//2 31//2
f 29//2 28//2 31//2
f 28//2 25//2 31//2
f 30//2 29//2 31//2
f 32//5 6//5 5//5
f 16//5 6//5 32//5
f 17//5 10//5 9//5
f 33//5 10//5 17//5
f 6//6 16//6 15//6
f 6//6 15//6 12//6
f 14//5 12//5 15//5
f 18//5 14//5 15//5
f 1//4 33//4 2//4
f 33//4 1//4 10//4
f 3//6 5//6 4//6
f 32//6 5//6 3//6
f 16//7 32//7 3//7
f 33//7 17//7 2//7
f 34//7 3//7 2//7
f 34//7 17//7 16//7
f 34//7 16//7 3//7
f 34//7 2//7 17//7
f 35//8 36//8 37//9
f 36//8 38//9 37//9
f 35//10 37//11 39//10
f 39//10 37//11 40//12
f 39//13 40//14 41//13
f 41//13 40//14 42//14
f 41//15 42//16 43//15
f 43//15 42//16 44//16
f 43//17 44//18 45//17
f 45//17 44//18 46//18
f 45//19 46//20 47//19
f 47//19 46//20 48//20
f 49//21 47//21 50//22
f 47//21 48//23 50//22
f 49//24 50//24 51//24
f 51//24 50//24 52//24
f 51//25 52//25 53//25
f 53//25 52//25 54//25
f 53//26 54//27 55//26
f 55//26 54//27 56//27
f 55//28 56//29 57//28
f 57//28 56//29 58//30
f 57//31 58//32 59//31
f 59//31 58//32 60//31
f 59//4 60//4 61//4
f 61//4 60//4 62//4
f 61//33 62//34 63//33
f 63//33 62//34 64//35
f 63//36 64//36 65//36
f 65//36 64//36 66//36
f 65//37 66//37 67//37
f 67//37 66//37 68//37
f 67//38 68//38 69//38
f 69//38 68//38 70//38
f 69//39 70//40 71//40
f 71//40 70//40 72//41
f 71//42 72//43 73//44
f 73//44 72//43 74//43
f 73//45 74//46 75//47
f 75//47 74//46 76//48
f 77//49 75//50 78//49
f 75//50 76//51 78//49
f 77//52 78//52 79//52
f 79//52 78//52 80//52
f 81//53 79//53 82//53
f 79//53 80//53 82//53
f 83//54 81//54 84//55
f 81//54 82//55 84//55
f 83//56 84//56 36//56
f 36//56 84//56 38//56
f 85//1 38//1 84//1
f 85//1 84//1 82//1
f 85//1 82//1 80//1
f 85//1 80//1 78//1
f 85//1 78//1 76//1
f 85//1 76//1 74//1
f 85//1 74//1 72//1
f 85//1 72//1 70//1
f 85//1 70//1 68//1
f 85//1 68//1 66//1
f 85//1 66//1 64//1
f 85//1 64//1 62//1
f 85//1 62//1 60//57
f 85//1 60//57 58//1
f 85//1 58//1 56//1
f 85//1 56//1 54//1
f 85//1 54//1 52//1
f 85//1 52//1 50//1
f 85//1 50//1 48//1
f 85//1 48//1 46//1
f 85//1 46//1 44//1
f 85//1 44//1 42//1
f 85//1 42//1 40//1
f 85//1 40//1 37//1
f 85//1 37//1 38//1
f 86//5 83//5 36//58
f 86//5 81//5 83//5
f 86//5 79//5 81//5
f 86//5 77//5 79//5
f 86//5 75//5 77//5
f 86//5 73//5 75//5
f 86//5 71//5 73//5
f 86//5 69//5 71//5
f 86//5 67//5 69//5
f 86//5 65//5 67//5
f 86//5 63//5 65//5
f 86//5 61//5 63//5
f 86//5 59//5 61//5
f 86//5 57//58 59//5
f 86//5 55//5 57//58
f 86//5 53//5 55//5
f 86//5 51//5 53//5
f 86//5 49//5 51//5
f 86//5 47//5 49//5
f 86//5 45//5 47//5
f 86//5 43//5 45//5
f 86//5 41//5 43//5
f 86//5 39//5 41//5
f 86//5 35//5 39//5
f 86//5 36//58 35//5
